<mxfile host="app.diagrams.net" modified="2023-06-13T11:15:05.167Z" agent="Mozilla/5.0 (Windows NT 10.0; Win64; x64) AppleWebKit/537.36 (KHTML, like Gecko) Chrome/114.0.0.0 Safari/537.36" etag="cbdHp8o4Iw2bN0r5QmMD" version="21.3.8" type="github">
  <diagram id="R2lEEEUBdFMjLlhIrx00" name="Page-1">
    <mxGraphModel dx="1900" dy="645" grid="1" gridSize="10" guides="1" tooltips="1" connect="1" arrows="1" fold="1" page="1" pageScale="1" pageWidth="850" pageHeight="1100" math="0" shadow="0" extFonts="Permanent Marker^https://fonts.googleapis.com/css?family=Permanent+Marker">
      <root>
        <mxCell id="0" />
        <mxCell id="1" parent="0" />
        <mxCell id="C-vyLk0tnHw3VtMMgP7b-1" value="" style="edgeStyle=entityRelationEdgeStyle;endArrow=ERzeroToMany;startArrow=ERone;endFill=1;startFill=0;sketch=1;curveFitting=1;jiggle=2;swimlaneLine=1;fontFamily=Lucida Console;fontStyle=0;labelBackgroundColor=none;spacing=7;fontSize=16;spacingTop=6;spacingBottom=4;spacingRight=0;strokeColor=#E07A5F;fontColor=#FFFFFF;" parent="1" source="C-vyLk0tnHw3VtMMgP7b-24" target="C-vyLk0tnHw3VtMMgP7b-6" edge="1">
          <mxGeometry width="100" height="100" relative="1" as="geometry">
            <mxPoint x="340" y="730" as="sourcePoint" />
            <mxPoint x="440" y="630" as="targetPoint" />
          </mxGeometry>
        </mxCell>
        <mxCell id="C-vyLk0tnHw3VtMMgP7b-12" value="" style="edgeStyle=entityRelationEdgeStyle;endArrow=ERzeroToMany;startArrow=ERone;endFill=1;startFill=0;sketch=1;curveFitting=1;jiggle=2;swimlaneLine=1;fontFamily=Lucida Console;fontStyle=0;labelBackgroundColor=none;spacing=7;fontSize=16;spacingTop=6;spacingBottom=4;spacingRight=0;strokeColor=#E07A5F;fontColor=#FFFFFF;" parent="1" source="C-vyLk0tnHw3VtMMgP7b-3" target="C-vyLk0tnHw3VtMMgP7b-17" edge="1">
          <mxGeometry width="100" height="100" relative="1" as="geometry">
            <mxPoint x="400" y="190" as="sourcePoint" />
            <mxPoint x="460" y="215" as="targetPoint" />
          </mxGeometry>
        </mxCell>
        <mxCell id="C-vyLk0tnHw3VtMMgP7b-2" value="userCourses" style="shape=table;startSize=40;container=1;collapsible=1;childLayout=tableLayout;fixedRows=1;rowLines=0;fontStyle=0;align=center;resizeLast=1;sketch=1;curveFitting=1;jiggle=2;swimlaneLine=1;fontFamily=Lucida Console;labelBackgroundColor=none;spacing=7;fontSize=16;spacingTop=6;spacingBottom=4;spacingRight=0;fillColor=#F2CC8F;strokeColor=#E07A5F;fontColor=#FFFFFF;" parent="1" vertex="1">
          <mxGeometry x="450" y="130" width="370" height="220" as="geometry" />
        </mxCell>
        <mxCell id="C-vyLk0tnHw3VtMMgP7b-3" value="" style="shape=partialRectangle;collapsible=0;dropTarget=0;pointerEvents=0;fillColor=none;points=[[0,0.5],[1,0.5]];portConstraint=eastwest;top=0;left=0;right=0;bottom=1;sketch=1;curveFitting=1;jiggle=2;swimlaneLine=1;fontFamily=Lucida Console;fontStyle=0;labelBackgroundColor=none;spacing=7;fontSize=16;spacingTop=6;spacingBottom=4;spacingRight=0;strokeColor=#E07A5F;fontColor=#FFFFFF;" parent="C-vyLk0tnHw3VtMMgP7b-2" vertex="1">
          <mxGeometry y="40" width="370" height="60" as="geometry" />
        </mxCell>
        <mxCell id="C-vyLk0tnHw3VtMMgP7b-4" value="PK" style="shape=partialRectangle;overflow=hidden;connectable=0;fillColor=none;top=0;left=0;bottom=0;right=0;fontStyle=0;sketch=1;curveFitting=1;jiggle=2;swimlaneLine=1;fontFamily=Lucida Console;labelBackgroundColor=none;spacing=7;fontSize=16;spacingTop=6;spacingBottom=4;spacingRight=0;strokeColor=#E07A5F;fontColor=#FFFFFF;" parent="C-vyLk0tnHw3VtMMgP7b-3" vertex="1">
          <mxGeometry width="60" height="60" as="geometry">
            <mxRectangle width="60" height="60" as="alternateBounds" />
          </mxGeometry>
        </mxCell>
        <mxCell id="C-vyLk0tnHw3VtMMgP7b-5" value="order_id int NOT NULL " style="shape=partialRectangle;overflow=hidden;connectable=0;fillColor=none;top=0;left=0;bottom=0;right=0;align=left;spacingLeft=6;fontStyle=4;sketch=1;curveFitting=1;jiggle=2;swimlaneLine=1;fontFamily=Lucida Console;labelBackgroundColor=none;spacing=7;fontSize=16;spacingTop=6;spacingBottom=4;spacingRight=0;strokeColor=#E07A5F;fontColor=#FFFFFF;" parent="C-vyLk0tnHw3VtMMgP7b-3" vertex="1">
          <mxGeometry x="60" width="310" height="60" as="geometry">
            <mxRectangle width="310" height="60" as="alternateBounds" />
          </mxGeometry>
        </mxCell>
        <mxCell id="C-vyLk0tnHw3VtMMgP7b-6" value="" style="shape=partialRectangle;collapsible=0;dropTarget=0;pointerEvents=0;fillColor=none;points=[[0,0.5],[1,0.5]];portConstraint=eastwest;top=0;left=0;right=0;bottom=0;sketch=1;curveFitting=1;jiggle=2;swimlaneLine=1;fontFamily=Lucida Console;fontStyle=0;labelBackgroundColor=none;spacing=7;fontSize=16;spacingTop=6;spacingBottom=4;spacingRight=0;strokeColor=#E07A5F;fontColor=#FFFFFF;" parent="C-vyLk0tnHw3VtMMgP7b-2" vertex="1">
          <mxGeometry y="100" width="370" height="60" as="geometry" />
        </mxCell>
        <mxCell id="C-vyLk0tnHw3VtMMgP7b-7" value="FK1" style="shape=partialRectangle;overflow=hidden;connectable=0;fillColor=none;top=0;left=0;bottom=0;right=0;sketch=1;curveFitting=1;jiggle=2;swimlaneLine=1;fontFamily=Lucida Console;fontStyle=0;labelBackgroundColor=none;spacing=7;fontSize=16;spacingTop=6;spacingBottom=4;spacingRight=0;strokeColor=#E07A5F;fontColor=#FFFFFF;" parent="C-vyLk0tnHw3VtMMgP7b-6" vertex="1">
          <mxGeometry width="60" height="60" as="geometry">
            <mxRectangle width="60" height="60" as="alternateBounds" />
          </mxGeometry>
        </mxCell>
        <mxCell id="C-vyLk0tnHw3VtMMgP7b-8" value="customer_id int NOT NULL" style="shape=partialRectangle;overflow=hidden;connectable=0;fillColor=none;top=0;left=0;bottom=0;right=0;align=left;spacingLeft=6;sketch=1;curveFitting=1;jiggle=2;swimlaneLine=1;fontFamily=Lucida Console;fontStyle=0;labelBackgroundColor=none;spacing=7;fontSize=16;spacingTop=6;spacingBottom=4;spacingRight=0;strokeColor=#E07A5F;fontColor=#FFFFFF;" parent="C-vyLk0tnHw3VtMMgP7b-6" vertex="1">
          <mxGeometry x="60" width="310" height="60" as="geometry">
            <mxRectangle width="310" height="60" as="alternateBounds" />
          </mxGeometry>
        </mxCell>
        <mxCell id="C-vyLk0tnHw3VtMMgP7b-9" value="" style="shape=partialRectangle;collapsible=0;dropTarget=0;pointerEvents=0;fillColor=none;points=[[0,0.5],[1,0.5]];portConstraint=eastwest;top=0;left=0;right=0;bottom=0;sketch=1;curveFitting=1;jiggle=2;swimlaneLine=1;fontFamily=Lucida Console;fontStyle=0;labelBackgroundColor=none;spacing=7;fontSize=16;spacingTop=6;spacingBottom=4;spacingRight=0;strokeColor=#E07A5F;fontColor=#FFFFFF;" parent="C-vyLk0tnHw3VtMMgP7b-2" vertex="1">
          <mxGeometry y="160" width="370" height="60" as="geometry" />
        </mxCell>
        <mxCell id="C-vyLk0tnHw3VtMMgP7b-10" value="" style="shape=partialRectangle;overflow=hidden;connectable=0;fillColor=none;top=0;left=0;bottom=0;right=0;sketch=1;curveFitting=1;jiggle=2;swimlaneLine=1;fontFamily=Lucida Console;fontStyle=0;labelBackgroundColor=none;spacing=7;fontSize=16;spacingTop=6;spacingBottom=4;spacingRight=0;strokeColor=#E07A5F;fontColor=#FFFFFF;" parent="C-vyLk0tnHw3VtMMgP7b-9" vertex="1">
          <mxGeometry width="60" height="60" as="geometry">
            <mxRectangle width="60" height="60" as="alternateBounds" />
          </mxGeometry>
        </mxCell>
        <mxCell id="C-vyLk0tnHw3VtMMgP7b-11" value="order_date date NOT NULL" style="shape=partialRectangle;overflow=hidden;connectable=0;fillColor=none;top=0;left=0;bottom=0;right=0;align=left;spacingLeft=6;sketch=1;curveFitting=1;jiggle=2;swimlaneLine=1;fontFamily=Lucida Console;fontStyle=0;labelBackgroundColor=none;spacing=7;fontSize=16;spacingTop=6;spacingBottom=4;spacingRight=0;strokeColor=#E07A5F;fontColor=#FFFFFF;" parent="C-vyLk0tnHw3VtMMgP7b-9" vertex="1">
          <mxGeometry x="60" width="310" height="60" as="geometry">
            <mxRectangle width="310" height="60" as="alternateBounds" />
          </mxGeometry>
        </mxCell>
        <mxCell id="C-vyLk0tnHw3VtMMgP7b-13" value="courses" style="shape=table;startSize=40;container=1;collapsible=1;childLayout=tableLayout;fixedRows=1;rowLines=0;fontStyle=0;align=center;resizeLast=1;sketch=1;curveFitting=1;jiggle=2;swimlaneLine=1;fontFamily=Lucida Console;labelBackgroundColor=none;spacing=7;fontSize=16;spacingTop=6;spacingBottom=4;spacingRight=0;fillColor=#F2CC8F;strokeColor=#E07A5F;fontColor=#FFFFFF;" parent="1" vertex="1">
          <mxGeometry x="460" y="460" width="360" height="190" as="geometry" />
        </mxCell>
        <mxCell id="C-vyLk0tnHw3VtMMgP7b-14" value="" style="shape=partialRectangle;collapsible=0;dropTarget=0;pointerEvents=0;fillColor=none;points=[[0,0.5],[1,0.5]];portConstraint=eastwest;top=0;left=0;right=0;bottom=1;sketch=1;curveFitting=1;jiggle=2;swimlaneLine=1;fontFamily=Lucida Console;fontStyle=0;labelBackgroundColor=none;spacing=7;fontSize=16;spacingTop=6;spacingBottom=4;spacingRight=0;strokeColor=#E07A5F;fontColor=#FFFFFF;" parent="C-vyLk0tnHw3VtMMgP7b-13" vertex="1">
          <mxGeometry y="40" width="360" height="50" as="geometry" />
        </mxCell>
        <mxCell id="C-vyLk0tnHw3VtMMgP7b-15" value="PK" style="shape=partialRectangle;overflow=hidden;connectable=0;fillColor=none;top=0;left=0;bottom=0;right=0;fontStyle=0;sketch=1;curveFitting=1;jiggle=2;swimlaneLine=1;fontFamily=Lucida Console;labelBackgroundColor=none;spacing=7;fontSize=16;spacingTop=6;spacingBottom=4;spacingRight=0;strokeColor=#E07A5F;fontColor=#FFFFFF;" parent="C-vyLk0tnHw3VtMMgP7b-14" vertex="1">
          <mxGeometry width="30" height="50" as="geometry">
            <mxRectangle width="30" height="50" as="alternateBounds" />
          </mxGeometry>
        </mxCell>
        <mxCell id="C-vyLk0tnHw3VtMMgP7b-16" value="shipment_id int NOT NULL " style="shape=partialRectangle;overflow=hidden;connectable=0;fillColor=none;top=0;left=0;bottom=0;right=0;align=left;spacingLeft=6;fontStyle=4;sketch=1;curveFitting=1;jiggle=2;swimlaneLine=1;fontFamily=Lucida Console;labelBackgroundColor=none;spacing=7;fontSize=16;spacingTop=6;spacingBottom=4;spacingRight=0;strokeColor=#E07A5F;fontColor=#FFFFFF;" parent="C-vyLk0tnHw3VtMMgP7b-14" vertex="1">
          <mxGeometry x="30" width="330" height="50" as="geometry">
            <mxRectangle width="330" height="50" as="alternateBounds" />
          </mxGeometry>
        </mxCell>
        <mxCell id="C-vyLk0tnHw3VtMMgP7b-17" value="" style="shape=partialRectangle;collapsible=0;dropTarget=0;pointerEvents=0;fillColor=none;points=[[0,0.5],[1,0.5]];portConstraint=eastwest;top=0;left=0;right=0;bottom=0;sketch=1;curveFitting=1;jiggle=2;swimlaneLine=1;fontFamily=Lucida Console;fontStyle=0;labelBackgroundColor=none;spacing=7;fontSize=16;spacingTop=6;spacingBottom=4;spacingRight=0;strokeColor=#E07A5F;fontColor=#FFFFFF;" parent="C-vyLk0tnHw3VtMMgP7b-13" vertex="1">
          <mxGeometry y="90" width="360" height="50" as="geometry" />
        </mxCell>
        <mxCell id="C-vyLk0tnHw3VtMMgP7b-18" value="FK1" style="shape=partialRectangle;overflow=hidden;connectable=0;fillColor=none;top=0;left=0;bottom=0;right=0;sketch=1;curveFitting=1;jiggle=2;swimlaneLine=1;fontFamily=Lucida Console;fontStyle=0;labelBackgroundColor=none;spacing=7;fontSize=16;spacingTop=6;spacingBottom=4;spacingRight=0;strokeColor=#E07A5F;fontColor=#FFFFFF;" parent="C-vyLk0tnHw3VtMMgP7b-17" vertex="1">
          <mxGeometry width="30" height="50" as="geometry">
            <mxRectangle width="30" height="50" as="alternateBounds" />
          </mxGeometry>
        </mxCell>
        <mxCell id="C-vyLk0tnHw3VtMMgP7b-19" value="order_id int NOT NULL" style="shape=partialRectangle;overflow=hidden;connectable=0;fillColor=none;top=0;left=0;bottom=0;right=0;align=left;spacingLeft=6;sketch=1;curveFitting=1;jiggle=2;swimlaneLine=1;fontFamily=Lucida Console;fontStyle=0;labelBackgroundColor=none;spacing=7;fontSize=16;spacingTop=6;spacingBottom=4;spacingRight=0;strokeColor=#E07A5F;fontColor=#FFFFFF;" parent="C-vyLk0tnHw3VtMMgP7b-17" vertex="1">
          <mxGeometry x="30" width="330" height="50" as="geometry">
            <mxRectangle width="330" height="50" as="alternateBounds" />
          </mxGeometry>
        </mxCell>
        <mxCell id="C-vyLk0tnHw3VtMMgP7b-20" value="" style="shape=partialRectangle;collapsible=0;dropTarget=0;pointerEvents=0;fillColor=none;points=[[0,0.5],[1,0.5]];portConstraint=eastwest;top=0;left=0;right=0;bottom=0;sketch=1;curveFitting=1;jiggle=2;swimlaneLine=1;fontFamily=Lucida Console;fontStyle=0;labelBackgroundColor=none;spacing=7;fontSize=16;spacingTop=6;spacingBottom=4;spacingRight=0;strokeColor=#E07A5F;fontColor=#FFFFFF;" parent="C-vyLk0tnHw3VtMMgP7b-13" vertex="1">
          <mxGeometry y="140" width="360" height="50" as="geometry" />
        </mxCell>
        <mxCell id="C-vyLk0tnHw3VtMMgP7b-21" value="" style="shape=partialRectangle;overflow=hidden;connectable=0;fillColor=none;top=0;left=0;bottom=0;right=0;sketch=1;curveFitting=1;jiggle=2;swimlaneLine=1;fontFamily=Lucida Console;fontStyle=0;labelBackgroundColor=none;spacing=7;fontSize=16;spacingTop=6;spacingBottom=4;spacingRight=0;strokeColor=#E07A5F;fontColor=#FFFFFF;" parent="C-vyLk0tnHw3VtMMgP7b-20" vertex="1">
          <mxGeometry width="30" height="50" as="geometry">
            <mxRectangle width="30" height="50" as="alternateBounds" />
          </mxGeometry>
        </mxCell>
        <mxCell id="C-vyLk0tnHw3VtMMgP7b-22" value="shipment_date date NOT NULL" style="shape=partialRectangle;overflow=hidden;connectable=0;fillColor=none;top=0;left=0;bottom=0;right=0;align=left;spacingLeft=6;sketch=1;curveFitting=1;jiggle=2;swimlaneLine=1;fontFamily=Lucida Console;fontStyle=0;labelBackgroundColor=none;spacing=7;fontSize=16;spacingTop=6;spacingBottom=4;spacingRight=0;strokeColor=#E07A5F;fontColor=#FFFFFF;" parent="C-vyLk0tnHw3VtMMgP7b-20" vertex="1">
          <mxGeometry x="30" width="330" height="50" as="geometry">
            <mxRectangle width="330" height="50" as="alternateBounds" />
          </mxGeometry>
        </mxCell>
        <mxCell id="C-vyLk0tnHw3VtMMgP7b-23" value="users" style="shape=table;startSize=40;container=1;collapsible=1;childLayout=tableLayout;fixedRows=1;rowLines=0;fontStyle=0;align=center;resizeLast=1;fillStyle=auto;swimlaneFillColor=none;swimlaneLine=1;fontFamily=Lucida Console;labelBackgroundColor=none;spacing=7;fontSize=16;spacingTop=6;spacingBottom=4;spacingRight=0;sketch=1;curveFitting=1;jiggle=2;fillColor=#F2CC8F;strokeColor=#E07A5F;fontColor=#FFFFFF;" parent="1" vertex="1">
          <mxGeometry x="-90" y="150" width="450" height="330" as="geometry" />
        </mxCell>
        <mxCell id="C-vyLk0tnHw3VtMMgP7b-24" value="" style="shape=partialRectangle;collapsible=0;dropTarget=0;pointerEvents=0;fillColor=none;points=[[0,0.5],[1,0.5]];portConstraint=eastwest;top=0;left=0;right=0;bottom=1;sketch=1;curveFitting=1;jiggle=2;swimlaneLine=1;fontFamily=Lucida Console;fontStyle=0;labelBackgroundColor=none;spacing=7;fontSize=16;spacingTop=6;spacingBottom=4;spacingRight=0;strokeColor=#E07A5F;fontColor=#FFFFFF;" parent="C-vyLk0tnHw3VtMMgP7b-23" vertex="1">
          <mxGeometry y="40" width="450" height="50" as="geometry" />
        </mxCell>
        <mxCell id="C-vyLk0tnHw3VtMMgP7b-25" value="PK" style="shape=partialRectangle;overflow=hidden;connectable=0;fillColor=none;top=0;left=0;bottom=0;right=0;fontStyle=0;sketch=1;curveFitting=1;jiggle=2;swimlaneLine=1;fontFamily=Lucida Console;labelBackgroundColor=none;spacing=7;fontSize=16;spacingTop=6;spacingBottom=4;spacingRight=0;strokeColor=#E07A5F;fontColor=#FFFFFF;" parent="C-vyLk0tnHw3VtMMgP7b-24" vertex="1">
          <mxGeometry width="70" height="50" as="geometry">
            <mxRectangle width="70" height="50" as="alternateBounds" />
          </mxGeometry>
        </mxCell>
        <mxCell id="C-vyLk0tnHw3VtMMgP7b-26" value="id SERIAL NOT NULL" style="shape=partialRectangle;overflow=hidden;connectable=0;fillColor=none;top=0;left=0;bottom=0;right=0;align=left;spacingLeft=6;fontStyle=4;sketch=1;curveFitting=1;jiggle=2;swimlaneLine=1;fontFamily=Lucida Console;labelBackgroundColor=none;spacing=7;fontSize=16;spacingTop=6;spacingBottom=4;spacingRight=0;strokeColor=#E07A5F;fontColor=#FFFFFF;" parent="C-vyLk0tnHw3VtMMgP7b-24" vertex="1">
          <mxGeometry x="70" width="380" height="50" as="geometry">
            <mxRectangle width="380" height="50" as="alternateBounds" />
          </mxGeometry>
        </mxCell>
        <mxCell id="C-vyLk0tnHw3VtMMgP7b-27" value="" style="shape=partialRectangle;collapsible=0;dropTarget=0;pointerEvents=0;fillColor=none;points=[[0,0.5],[1,0.5]];portConstraint=eastwest;top=0;left=0;right=0;bottom=0;sketch=1;curveFitting=1;jiggle=2;swimlaneLine=1;fontFamily=Lucida Console;fontStyle=0;labelBackgroundColor=none;spacing=7;fontSize=16;spacingTop=6;spacingBottom=4;spacingRight=0;strokeColor=#E07A5F;fontColor=#FFFFFF;" parent="C-vyLk0tnHw3VtMMgP7b-23" vertex="1">
          <mxGeometry y="90" width="450" height="60" as="geometry" />
        </mxCell>
        <mxCell id="C-vyLk0tnHw3VtMMgP7b-28" value="" style="shape=partialRectangle;overflow=hidden;connectable=0;fillColor=none;top=0;left=0;bottom=0;right=0;sketch=1;curveFitting=1;jiggle=2;swimlaneLine=1;fontFamily=Lucida Console;fontStyle=0;labelBackgroundColor=none;spacing=7;fontSize=16;spacingTop=6;spacingBottom=4;spacingRight=0;strokeColor=#E07A5F;fontColor=#FFFFFF;" parent="C-vyLk0tnHw3VtMMgP7b-27" vertex="1">
          <mxGeometry width="70" height="60" as="geometry">
            <mxRectangle width="70" height="60" as="alternateBounds" />
          </mxGeometry>
        </mxCell>
        <mxCell id="C-vyLk0tnHw3VtMMgP7b-29" value="name VARCHAR(50)" style="shape=partialRectangle;overflow=hidden;connectable=0;fillColor=none;top=0;left=0;bottom=0;right=0;align=left;spacingLeft=6;sketch=1;curveFitting=1;jiggle=2;swimlaneLine=1;fontFamily=Lucida Console;fontStyle=0;labelBackgroundColor=none;spacing=7;fontSize=16;spacingTop=6;spacingBottom=4;spacingRight=0;strokeColor=#E07A5F;fontColor=#FFFFFF;" parent="C-vyLk0tnHw3VtMMgP7b-27" vertex="1">
          <mxGeometry x="70" width="380" height="60" as="geometry">
            <mxRectangle width="380" height="60" as="alternateBounds" />
          </mxGeometry>
        </mxCell>
        <mxCell id="TafsuPZVhkTjDhyv51yz-7" style="shape=partialRectangle;collapsible=0;dropTarget=0;pointerEvents=0;fillColor=none;points=[[0,0.5],[1,0.5]];portConstraint=eastwest;top=0;left=0;right=0;bottom=0;sketch=1;curveFitting=1;jiggle=2;swimlaneLine=1;fontFamily=Lucida Console;fontStyle=0;labelBackgroundColor=none;spacing=7;fontSize=16;spacingTop=6;spacingBottom=4;spacingRight=0;strokeColor=#E07A5F;fontColor=#FFFFFF;" vertex="1" parent="C-vyLk0tnHw3VtMMgP7b-23">
          <mxGeometry y="150" width="450" height="60" as="geometry" />
        </mxCell>
        <mxCell id="TafsuPZVhkTjDhyv51yz-8" style="shape=partialRectangle;overflow=hidden;connectable=0;fillColor=none;top=0;left=0;bottom=0;right=0;sketch=1;curveFitting=1;jiggle=2;swimlaneLine=1;fontFamily=Lucida Console;fontStyle=0;labelBackgroundColor=none;spacing=7;fontSize=16;spacingTop=6;spacingBottom=4;spacingRight=0;strokeColor=#E07A5F;fontColor=#FFFFFF;" vertex="1" parent="TafsuPZVhkTjDhyv51yz-7">
          <mxGeometry width="70" height="60" as="geometry">
            <mxRectangle width="70" height="60" as="alternateBounds" />
          </mxGeometry>
        </mxCell>
        <mxCell id="TafsuPZVhkTjDhyv51yz-9" value="email VARCHAR(50)" style="shape=partialRectangle;overflow=hidden;connectable=0;fillColor=none;top=0;left=0;bottom=0;right=0;align=left;spacingLeft=6;sketch=1;curveFitting=1;jiggle=2;swimlaneLine=1;fontFamily=Lucida Console;fontStyle=0;labelBackgroundColor=none;spacing=7;fontSize=16;spacingTop=6;spacingBottom=4;spacingRight=0;strokeColor=#E07A5F;fontColor=#FFFFFF;" vertex="1" parent="TafsuPZVhkTjDhyv51yz-7">
          <mxGeometry x="70" width="380" height="60" as="geometry">
            <mxRectangle width="380" height="60" as="alternateBounds" />
          </mxGeometry>
        </mxCell>
        <mxCell id="TafsuPZVhkTjDhyv51yz-4" style="shape=partialRectangle;collapsible=0;dropTarget=0;pointerEvents=0;fillColor=none;points=[[0,0.5],[1,0.5]];portConstraint=eastwest;top=0;left=0;right=0;bottom=0;sketch=1;curveFitting=1;jiggle=2;swimlaneLine=1;fontFamily=Lucida Console;fontStyle=0;labelBackgroundColor=none;spacing=7;fontSize=16;spacingTop=6;spacingBottom=4;spacingRight=0;strokeColor=#E07A5F;fontColor=#FFFFFF;" vertex="1" parent="C-vyLk0tnHw3VtMMgP7b-23">
          <mxGeometry y="210" width="450" height="60" as="geometry" />
        </mxCell>
        <mxCell id="TafsuPZVhkTjDhyv51yz-5" style="shape=partialRectangle;overflow=hidden;connectable=0;fillColor=none;top=0;left=0;bottom=0;right=0;sketch=1;curveFitting=1;jiggle=2;swimlaneLine=1;fontFamily=Lucida Console;fontStyle=0;labelBackgroundColor=none;spacing=7;fontSize=16;spacingTop=6;spacingBottom=4;spacingRight=0;strokeColor=#E07A5F;fontColor=#FFFFFF;" vertex="1" parent="TafsuPZVhkTjDhyv51yz-4">
          <mxGeometry width="70" height="60" as="geometry">
            <mxRectangle width="70" height="60" as="alternateBounds" />
          </mxGeometry>
        </mxCell>
        <mxCell id="TafsuPZVhkTjDhyv51yz-6" value="password VARCHAR(120)" style="shape=partialRectangle;overflow=hidden;connectable=0;fillColor=none;top=0;left=0;bottom=0;right=0;align=left;spacingLeft=6;sketch=1;curveFitting=1;jiggle=2;swimlaneLine=1;fontFamily=Lucida Console;fontStyle=0;labelBackgroundColor=none;spacing=7;fontSize=16;spacingTop=6;spacingBottom=4;spacingRight=0;strokeColor=#E07A5F;fontColor=#FFFFFF;" vertex="1" parent="TafsuPZVhkTjDhyv51yz-4">
          <mxGeometry x="70" width="380" height="60" as="geometry">
            <mxRectangle width="380" height="60" as="alternateBounds" />
          </mxGeometry>
        </mxCell>
        <mxCell id="TafsuPZVhkTjDhyv51yz-1" style="shape=partialRectangle;collapsible=0;dropTarget=0;pointerEvents=0;fillColor=none;points=[[0,0.5],[1,0.5]];portConstraint=eastwest;top=0;left=0;right=0;bottom=0;sketch=1;curveFitting=1;jiggle=2;swimlaneLine=1;fontFamily=Lucida Console;fontStyle=0;labelBackgroundColor=none;spacing=7;fontSize=16;spacingTop=6;spacingBottom=4;spacingRight=0;strokeColor=#E07A5F;fontColor=#FFFFFF;" vertex="1" parent="C-vyLk0tnHw3VtMMgP7b-23">
          <mxGeometry y="270" width="450" height="60" as="geometry" />
        </mxCell>
        <mxCell id="TafsuPZVhkTjDhyv51yz-2" style="shape=partialRectangle;overflow=hidden;connectable=0;fillColor=none;top=0;left=0;bottom=0;right=0;sketch=1;curveFitting=1;jiggle=2;swimlaneLine=1;fontFamily=Lucida Console;fontStyle=0;labelBackgroundColor=none;spacing=7;fontSize=16;spacingTop=6;spacingBottom=4;spacingRight=0;strokeColor=#E07A5F;fontColor=#FFFFFF;" vertex="1" parent="TafsuPZVhkTjDhyv51yz-1">
          <mxGeometry width="70" height="60" as="geometry">
            <mxRectangle width="70" height="60" as="alternateBounds" />
          </mxGeometry>
        </mxCell>
        <mxCell id="TafsuPZVhkTjDhyv51yz-3" value="admin BOOLEAN DEFAULT false" style="shape=partialRectangle;overflow=hidden;connectable=0;fillColor=none;top=0;left=0;bottom=0;right=0;align=left;spacingLeft=6;sketch=1;curveFitting=1;jiggle=2;swimlaneLine=1;fontFamily=Lucida Console;fontStyle=0;labelBackgroundColor=none;spacing=7;fontSize=16;spacingTop=6;spacingBottom=4;spacingRight=0;strokeColor=#E07A5F;fontColor=#FFFFFF;" vertex="1" parent="TafsuPZVhkTjDhyv51yz-1">
          <mxGeometry x="70" width="380" height="60" as="geometry">
            <mxRectangle width="380" height="60" as="alternateBounds" />
          </mxGeometry>
        </mxCell>
        <mxCell id="TafsuPZVhkTjDhyv51yz-10" value="LEGENDA" style="shape=table;startSize=40;container=1;collapsible=1;childLayout=tableLayout;fixedRows=1;rowLines=0;fontStyle=0;align=center;resizeLast=1;fillStyle=auto;swimlaneFillColor=none;swimlaneLine=1;fontFamily=Lucida Console;labelBackgroundColor=none;spacing=7;fontSize=16;spacingTop=6;spacingBottom=4;spacingRight=0;sketch=1;curveFitting=1;jiggle=2;fillColor=#F2CC8F;strokeColor=#E07A5F;fontColor=#FFFFFF;" vertex="1" parent="1">
          <mxGeometry x="-90" y="510" width="450" height="290" as="geometry" />
        </mxCell>
        <mxCell id="TafsuPZVhkTjDhyv51yz-11" value="" style="shape=partialRectangle;collapsible=0;dropTarget=0;pointerEvents=0;fillColor=none;points=[[0,0.5],[1,0.5]];portConstraint=eastwest;top=0;left=0;right=0;bottom=1;sketch=1;curveFitting=1;jiggle=2;swimlaneLine=1;fontFamily=Lucida Console;fontStyle=0;labelBackgroundColor=none;spacing=7;fontSize=16;spacingTop=6;spacingBottom=4;spacingRight=0;strokeColor=#E07A5F;fontColor=#FFFFFF;" vertex="1" parent="TafsuPZVhkTjDhyv51yz-10">
          <mxGeometry y="40" width="450" height="50" as="geometry" />
        </mxCell>
        <mxCell id="TafsuPZVhkTjDhyv51yz-12" value="PK" style="shape=partialRectangle;overflow=hidden;connectable=0;fillColor=none;top=0;left=0;bottom=0;right=0;fontStyle=0;sketch=1;curveFitting=1;jiggle=2;swimlaneLine=1;fontFamily=Lucida Console;labelBackgroundColor=none;spacing=7;fontSize=16;spacingTop=6;spacingBottom=4;spacingRight=0;strokeColor=#E07A5F;fontColor=#FFFFFF;" vertex="1" parent="TafsuPZVhkTjDhyv51yz-11">
          <mxGeometry width="70" height="50" as="geometry">
            <mxRectangle width="70" height="50" as="alternateBounds" />
          </mxGeometry>
        </mxCell>
        <mxCell id="TafsuPZVhkTjDhyv51yz-13" value="id SERIAL NOT NULL" style="shape=partialRectangle;overflow=hidden;connectable=0;fillColor=none;top=0;left=0;bottom=0;right=0;align=left;spacingLeft=6;fontStyle=4;sketch=1;curveFitting=1;jiggle=2;swimlaneLine=1;fontFamily=Lucida Console;labelBackgroundColor=none;spacing=7;fontSize=16;spacingTop=6;spacingBottom=4;spacingRight=0;strokeColor=#E07A5F;fontColor=#FFFFFF;" vertex="1" parent="TafsuPZVhkTjDhyv51yz-11">
          <mxGeometry x="70" width="380" height="50" as="geometry">
            <mxRectangle width="380" height="50" as="alternateBounds" />
          </mxGeometry>
        </mxCell>
        <mxCell id="TafsuPZVhkTjDhyv51yz-14" value="" style="shape=partialRectangle;collapsible=0;dropTarget=0;pointerEvents=0;fillColor=none;points=[[0,0.5],[1,0.5]];portConstraint=eastwest;top=0;left=0;right=0;bottom=0;sketch=1;curveFitting=1;jiggle=2;swimlaneLine=1;fontFamily=Lucida Console;fontStyle=0;labelBackgroundColor=none;spacing=7;fontSize=16;spacingTop=6;spacingBottom=4;spacingRight=0;strokeColor=#E07A5F;fontColor=#FFFFFF;" vertex="1" parent="TafsuPZVhkTjDhyv51yz-10">
          <mxGeometry y="90" width="450" height="60" as="geometry" />
        </mxCell>
        <mxCell id="TafsuPZVhkTjDhyv51yz-15" value="" style="shape=partialRectangle;overflow=hidden;connectable=0;fillColor=none;top=0;left=0;bottom=0;right=0;sketch=1;curveFitting=1;jiggle=2;swimlaneLine=1;fontFamily=Lucida Console;fontStyle=0;labelBackgroundColor=none;spacing=7;fontSize=16;spacingTop=6;spacingBottom=4;spacingRight=0;strokeColor=#E07A5F;fontColor=#FFFFFF;" vertex="1" parent="TafsuPZVhkTjDhyv51yz-14">
          <mxGeometry width="70" height="60" as="geometry">
            <mxRectangle width="70" height="60" as="alternateBounds" />
          </mxGeometry>
        </mxCell>
        <mxCell id="TafsuPZVhkTjDhyv51yz-16" value="customer_name char(50) NOT NULL" style="shape=partialRectangle;overflow=hidden;connectable=0;fillColor=none;top=0;left=0;bottom=0;right=0;align=left;spacingLeft=6;sketch=1;curveFitting=1;jiggle=2;swimlaneLine=1;fontFamily=Lucida Console;fontStyle=0;labelBackgroundColor=none;spacing=7;fontSize=16;spacingTop=6;spacingBottom=4;spacingRight=0;strokeColor=#E07A5F;fontColor=#FFFFFF;" vertex="1" parent="TafsuPZVhkTjDhyv51yz-14">
          <mxGeometry x="70" width="380" height="60" as="geometry">
            <mxRectangle width="380" height="60" as="alternateBounds" />
          </mxGeometry>
        </mxCell>
        <mxCell id="TafsuPZVhkTjDhyv51yz-17" style="shape=partialRectangle;collapsible=0;dropTarget=0;pointerEvents=0;fillColor=none;points=[[0,0.5],[1,0.5]];portConstraint=eastwest;top=0;left=0;right=0;bottom=0;sketch=1;curveFitting=1;jiggle=2;swimlaneLine=1;fontFamily=Lucida Console;fontStyle=0;labelBackgroundColor=none;spacing=7;fontSize=16;spacingTop=6;spacingBottom=4;spacingRight=0;strokeColor=#E07A5F;fontColor=#FFFFFF;" vertex="1" parent="TafsuPZVhkTjDhyv51yz-10">
          <mxGeometry y="150" width="450" height="60" as="geometry" />
        </mxCell>
        <mxCell id="TafsuPZVhkTjDhyv51yz-18" style="shape=partialRectangle;overflow=hidden;connectable=0;fillColor=none;top=0;left=0;bottom=0;right=0;sketch=1;curveFitting=1;jiggle=2;swimlaneLine=1;fontFamily=Lucida Console;fontStyle=0;labelBackgroundColor=none;spacing=7;fontSize=16;spacingTop=6;spacingBottom=4;spacingRight=0;strokeColor=#E07A5F;fontColor=#FFFFFF;" vertex="1" parent="TafsuPZVhkTjDhyv51yz-17">
          <mxGeometry width="70" height="60" as="geometry">
            <mxRectangle width="70" height="60" as="alternateBounds" />
          </mxGeometry>
        </mxCell>
        <mxCell id="TafsuPZVhkTjDhyv51yz-19" style="shape=partialRectangle;overflow=hidden;connectable=0;fillColor=none;top=0;left=0;bottom=0;right=0;align=left;spacingLeft=6;sketch=1;curveFitting=1;jiggle=2;swimlaneLine=1;fontFamily=Lucida Console;fontStyle=0;labelBackgroundColor=none;spacing=7;fontSize=16;spacingTop=6;spacingBottom=4;spacingRight=0;strokeColor=#E07A5F;fontColor=#FFFFFF;" vertex="1" parent="TafsuPZVhkTjDhyv51yz-17">
          <mxGeometry x="70" width="380" height="60" as="geometry">
            <mxRectangle width="380" height="60" as="alternateBounds" />
          </mxGeometry>
        </mxCell>
        <mxCell id="TafsuPZVhkTjDhyv51yz-20" style="shape=partialRectangle;collapsible=0;dropTarget=0;pointerEvents=0;fillColor=none;points=[[0,0.5],[1,0.5]];portConstraint=eastwest;top=0;left=0;right=0;bottom=0;sketch=1;curveFitting=1;jiggle=2;swimlaneLine=1;fontFamily=Lucida Console;fontStyle=0;labelBackgroundColor=none;spacing=7;fontSize=16;spacingTop=6;spacingBottom=4;spacingRight=0;strokeColor=#E07A5F;fontColor=#FFFFFF;" vertex="1" parent="TafsuPZVhkTjDhyv51yz-10">
          <mxGeometry y="210" width="450" height="60" as="geometry" />
        </mxCell>
        <mxCell id="TafsuPZVhkTjDhyv51yz-21" style="shape=partialRectangle;overflow=hidden;connectable=0;fillColor=none;top=0;left=0;bottom=0;right=0;sketch=1;curveFitting=1;jiggle=2;swimlaneLine=1;fontFamily=Lucida Console;fontStyle=0;labelBackgroundColor=none;spacing=7;fontSize=16;spacingTop=6;spacingBottom=4;spacingRight=0;strokeColor=#E07A5F;fontColor=#FFFFFF;" vertex="1" parent="TafsuPZVhkTjDhyv51yz-20">
          <mxGeometry width="70" height="60" as="geometry">
            <mxRectangle width="70" height="60" as="alternateBounds" />
          </mxGeometry>
        </mxCell>
        <mxCell id="TafsuPZVhkTjDhyv51yz-22" style="shape=partialRectangle;overflow=hidden;connectable=0;fillColor=none;top=0;left=0;bottom=0;right=0;align=left;spacingLeft=6;sketch=1;curveFitting=1;jiggle=2;swimlaneLine=1;fontFamily=Lucida Console;fontStyle=0;labelBackgroundColor=none;spacing=7;fontSize=16;spacingTop=6;spacingBottom=4;spacingRight=0;strokeColor=#E07A5F;fontColor=#FFFFFF;" vertex="1" parent="TafsuPZVhkTjDhyv51yz-20">
          <mxGeometry x="70" width="380" height="60" as="geometry">
            <mxRectangle width="380" height="60" as="alternateBounds" />
          </mxGeometry>
        </mxCell>
        <mxCell id="TafsuPZVhkTjDhyv51yz-23" style="shape=partialRectangle;collapsible=0;dropTarget=0;pointerEvents=0;fillColor=none;points=[[0,0.5],[1,0.5]];portConstraint=eastwest;top=0;left=0;right=0;bottom=0;sketch=1;curveFitting=1;jiggle=2;swimlaneLine=1;fontFamily=Lucida Console;fontStyle=0;labelBackgroundColor=none;spacing=7;fontSize=16;spacingTop=6;spacingBottom=4;spacingRight=0;strokeColor=#E07A5F;fontColor=#FFFFFF;" vertex="1" parent="TafsuPZVhkTjDhyv51yz-10">
          <mxGeometry y="270" width="450" height="20" as="geometry" />
        </mxCell>
        <mxCell id="TafsuPZVhkTjDhyv51yz-24" style="shape=partialRectangle;overflow=hidden;connectable=0;fillColor=none;top=0;left=0;bottom=0;right=0;sketch=1;curveFitting=1;jiggle=2;swimlaneLine=1;fontFamily=Lucida Console;fontStyle=0;labelBackgroundColor=none;spacing=7;fontSize=16;spacingTop=6;spacingBottom=4;spacingRight=0;strokeColor=#E07A5F;fontColor=#FFFFFF;" vertex="1" parent="TafsuPZVhkTjDhyv51yz-23">
          <mxGeometry width="70" height="20" as="geometry">
            <mxRectangle width="70" height="20" as="alternateBounds" />
          </mxGeometry>
        </mxCell>
        <mxCell id="TafsuPZVhkTjDhyv51yz-25" style="shape=partialRectangle;overflow=hidden;connectable=0;fillColor=none;top=0;left=0;bottom=0;right=0;align=left;spacingLeft=6;sketch=1;curveFitting=1;jiggle=2;swimlaneLine=1;fontFamily=Lucida Console;fontStyle=0;labelBackgroundColor=none;spacing=7;fontSize=16;spacingTop=6;spacingBottom=4;spacingRight=0;strokeColor=#E07A5F;fontColor=#FFFFFF;" vertex="1" parent="TafsuPZVhkTjDhyv51yz-23">
          <mxGeometry x="70" width="380" height="20" as="geometry">
            <mxRectangle width="380" height="20" as="alternateBounds" />
          </mxGeometry>
        </mxCell>
      </root>
    </mxGraphModel>
  </diagram>
</mxfile>
